# xmcd CD database file
#
# Track frame offsets:
#	150
#	21998
#	56200
#	78208
#	95308
#	125778
#	144780
#	161258
#	178680
#
# Disc length: 2935 seconds
#
# Revision: 0
# Processed by: cddbd v1.5.2PL0 Copyright (c) Steve Scherf et al.
# Submitted via: CDex 1.51
#
DISCID=6e0b7509
DTITLE=Willy Lundin - Swedish paintings
DYEAR=1994
DGENRE=Jazz
TTITLE0=Min sommarlåt
TTITLE1=Ack Värmeland du sköna
TTITLE2=Calle Schewens vals
TTITLE3=Fritiof i Arkadien
TTITLE4=Vem kan segla förutan vind
TTITLE5=Låt från Clockskär
TTITLE6=Jag har bott vid en landsväg i hela mitt liv
TTITLE7=Ballanden om herr Fredrik Åkare och den lilla fröken Cecilia Lind
TTITLE8=Dans på Brännö brygga
EXTD=YEAR: 1994
EXTT0=
EXTT1=
EXTT2=
EXTT3=
EXTT4=
EXTT5=
EXTT6=
EXTT7=
EXTT8=
PLAYORDER=
